# xmcd CD database file
#
# Track frame offsets:
#	150
#	23642
#	45940
#	98562
#	133760
#	163942
#	201242
#	233907
#
# Disc length: 3529 seconds
#
# Revision: 1
# Processed by: cddbd v1.5.1PL2 Copyright (c) Steve Scherf et al.
# Submitted via: CDex 1.50
#
DISCID=600dc708
DTITLE=Lubos Andrst - Live 25 let s blues
DYEAR=1994
DGENRE=Blues
TTITLE0=Rock Me Baby
TTITLE1=Born Under a Bad Sign
TTITLE2=Rano
TTITLE3=Stormy Monday Blues
TTITLE4=Mustang Sally
TTITLE5=Zapomenutý ostrov
TTITLE6=Cantaloupe Island
TTITLE7=Hootchie Cootchie Man
EXTD=YEAR: 1994
EXTT0=
EXTT1=
EXTT2=
EXTT3=
EXTT4=
EXTT5=
EXTT6=
EXTT7=
PLAYORDER=
